<svg width="850" height="571" viewBox="0 0 850 571" fill="none" xmlns="http://www.w3.org/2000/svg">
<path d="M251.873 0.949949L100.487 24.8334C1.93673 146.639 -5.87996 333.328 2.53042 411.447C42.6034 717.454 306.788 486.083 306.788 487.576C464.112 689.092 664.477 444.287 665.961 444.287C746.701 483.695 822.295 445.779 850 421.896V353.231C759.762 414.134 707.518 395.525 692.676 378.607C849.406 123.054 791.622 20.3553 743.139 0.949949C610.156 -18.1568 607.583 255.707 622.92 395.027C385.45 672.075 474.501 247.746 548.71 0.949949L388.418 24.8334C355.173 43.9402 320.146 297.503 306.788 421.896C90.691 638.041 180.138 231.326 251.873 0.949949Z" fill="url(#paint0_linear_944_1065)"/>
<defs>
<linearGradient id="paint0_linear_944_1065" x1="425" y1="0" x2="425" y2="570.011" gradientUnits="userSpaceOnUse">
<stop stop-color="white"/>
<stop offset="1" stop-color="white" stop-opacity="0.7"/>
</linearGradient>
</defs>
</svg>
