<svg viewBox="0 0 24 24">
  <path d="M18.1333 18.1579c0 .7538-.2739 1.4767-.7615 2.0097-.4876.533-1.1489.8324-1.8385.8324H9.4667c-.6896 0-1.351-.2994-1.8385-.8324-.4876-.533-.7615-1.2559-.7615-2.0097V6.7895H6V3.9474h3.9L10.7667 3h3.4666l.8667.9474H19v2.842h-.8667V18.158Zm-10.4-11.3684v11.3684c0 .5025.1826.9844.5077 1.3398.325.3553.766.5549 1.2257.5549h6.0666c.4597 0 .9006-.1996 1.2257-.5549.325-.3554.5077-.8373.5077-1.3398V6.7895H7.7333Zm10.4-.9474v-.9474h-3.4666L13.8 3.9474h-2.6l-.8667.9473H6.8667v.9474h11.2666Z" fill="#393939"/>
</svg>