<svg viewBox="0 0 24 24">
  <path fill="currentColor" d="M7.3482 5h4.6963c.6227 0 1.22.2329 1.6604.6475.4403.4145.6877.9768.6877 1.563v2.9474h-.7827V7.2105c0-.3908-.1649-.7657-.4585-1.042-.2936-.2764-.6918-.4317-1.1069-.4317H7.3482c-.4152 0-.8134.1553-1.107.4317-.2935.2763-.4585.6512-.4585 1.042v9.579c0 .3908.165.7657.4585 1.042.2936.2764.6918.4317 1.107.4317h4.6963c.4151 0 .8133-.1553 1.1069-.4317.2936-.2763.4585-.6512.4585-1.042v-2.9474h.7827v2.9474c0 .5862-.2474 1.1485-.6877 1.5631-.4404.4145-1.0377.6474-1.6604.6474H7.3482c-.6228 0-1.22-.2329-1.6604-.6474C5.2474 17.938 5 17.3757 5 16.7895v-9.579c0-.5862.2474-1.1485.6878-1.563C6.128 5.2329 6.7254 5 7.3482 5Zm2.3481 6.6316h8.8056L15.958 9.2368l.5198-.5526L20 12l-3.5222 3.3158-.5198-.5526 2.5439-2.3948H9.6963v-.7368Z"/>
</svg>