<svg viewBox="0 0 24 24">
  <path fill="currentColor" d="m18.6397 14.5239-1.5264-1.0855a5.4554 5.4554 0 0 0-.0042-2.8785l1.5314-1.072-1.2226-2.1154-1.7031.7792a5.4556 5.4556 0 0 0-2.4957-1.4355l-.1624-1.8621h-2.4452l-.1624 1.862a5.455 5.455 0 0 0-2.4949 1.4364l-1.704-.7792-1.2217 2.1154 1.5314 1.072a5.455 5.455 0 0 0-.005 2.8777l-1.5264 1.0855 1.2218 2.1053 1.704-.78a5.4552 5.4552 0 0 0 2.4948 1.4355l.1624 1.8621h2.4452l.1624-1.8621a5.457 5.457 0 0 0 2.4949-1.4355l1.7039.78 1.2226-2.1045-.0008-.0008ZM13.5212 4a.4205.4205 0 0 1 .4207.4014l.1498 1.7123a6.2677 6.2677 0 0 1 1.719.9912l1.5567-.7261a.4208.4208 0 0 1 .557.164l1.6871 2.9198a.4207.4207 0 0 1-.1363.5646l-1.4086.9862a6.2552 6.2552 0 0 1 .0009 1.985l1.4077.9845a.4203.4203 0 0 1 .1363.5654l-1.6871 2.9089a.4205.4205 0 0 1-.557.164l-1.5567-.7261a6.2639 6.2639 0 0 1-1.719.992l-.1498 1.7124a.421.421 0 0 1-.4207.4005H10.147a.4207.4207 0 0 1-.4207-.4005l-.1498-1.7124a6.271 6.271 0 0 1-1.719-.992l-1.5567.7261a.4207.4207 0 0 1-.5579-.1632l-1.6862-2.9105a.4208.4208 0 0 1 .1363-.5646l1.4077-.9854a6.2683 6.2683 0 0 1 0-1.9849l-1.4069-.9854a.4205.4205 0 0 1-.1363-.5637l1.6846-2.9207a.4207.4207 0 0 1 .5578-.164l1.5567.7261a6.2687 6.2687 0 0 1 1.719-.9912l.1499-1.7123A.4207.4207 0 0 1 10.1462 4h3.375Zm-1.6871 5.0613a2.945 2.945 0 1 1 0 5.8902 2.945 2.945 0 0 1 0-5.8902Zm0 .8414a2.1037 2.1037 0 1 0-.0001 4.2073 2.1037 2.1037 0 0 0 .0001-4.2073Z"/>
</svg>