<svg viewBox="0 0 24 24">
  <path fill="currentColor" d="M6.52 4a2.5168 2.5168 0 0 0-1.782.74A2.5296 2.5296 0 0 0 4 6.5262v10.9474c0 .67.2655 1.3126.738 1.7864A2.517 2.517 0 0 0 6.52 20h10.92a2.5172 2.5172 0 0 0 1.7819-.7399 2.5296 2.5296 0 0 0 .7381-1.7864v-1.4905a2.5266 2.5266 0 0 0 .6194-.8493 2.5324 2.5324 0 0 0 .2206-1.0286V9.8947a2.5318 2.5318 0 0 0-.2206-1.0286 2.5262 2.5262 0 0 0-.6194-.8493V6.5263c0-.67-.2655-1.3126-.7381-1.7864A2.5169 2.5169 0 0 0 17.44 4H6.52Zm0 .8421h10.92c.4456 0 .8729.1774 1.1879.4933.3151.3159.4921.7442.4921 1.191v.9886a2.5144 2.5144 0 0 0-.84-.1466h-5.04a2.517 2.517 0 0 0-1.7819.74 2.5295 2.5295 0 0 0-.7381 1.7863v4.2106c0 .67.2655 1.3126.7381 1.7863a2.5168 2.5168 0 0 0 1.7819.74h5.04a2.5159 2.5159 0 0 0 .84-.1465v.9886c0 .4467-.177.875-.4921 1.1909a1.6774 1.6774 0 0 1-1.1879.4933H6.52a1.6777 1.6777 0 0 1-1.188-.4933 1.6864 1.6864 0 0 1-.492-1.1909V6.5263c0-.4467.177-.875.492-1.1909a1.6779 1.6779 0 0 1 1.188-.4933Zm6.72 3.3684h5.04c.4456 0 .8729.1775 1.1879.4933.3151.3159.4921.7443.4921 1.191v4.2105c0 .4466-.177.875-.4921 1.1909a1.6778 1.6778 0 0 1-1.1879.4933h-5.04a1.6778 1.6778 0 0 1-1.1879-.4933 1.6864 1.6864 0 0 1-.4921-1.1909V9.8947c0-.4466.177-.875.4921-1.1909a1.6776 1.6776 0 0 1 1.1879-.4933Zm2.1 1.6842c-.557 0-1.0911.2218-1.4849.6167A2.1079 2.1079 0 0 0 13.24 12c0 .5584.2213 1.0938.6151 1.4886a2.0969 2.0969 0 0 0 1.4849.6167c.557 0 1.0911-.2218 1.4849-.6167A2.1074 2.1074 0 0 0 17.44 12a2.1074 2.1074 0 0 0-.6151-1.4886 2.0968 2.0968 0 0 0-1.4849-.6167Zm0 .8421a1.2598 1.2598 0 0 1 1.1641.7798 1.2664 1.2664 0 0 1 0 .9668 1.2598 1.2598 0 0 1-1.1641.7798 1.2584 1.2584 0 0 1-.891-.37 1.2652 1.2652 0 0 1 0-1.7864c.2363-.2369.5568-.37.891-.37Z"/>
</svg>